<svg xmlns="http://www.w3.org/2000/svg" xmlns:xlink="http://www.w3.org/1999/xlink" preserveAspectRatio="xMidYMid meet" version="1.0" viewBox="24.0 32.0 464.0 448.0" zoomAndPan="magnify" style="fill: rgb(255, 255, 255);" original_string_length="1900"><g id="__id116_sddl4ue6v"><path d="M56 64H72V80H56z" style="fill: inherit;"/></g><g id="__id117_sddl4ue6v"><path d="M88 64H104V80H88z" style="fill: inherit;"/></g><g id="__id118_sddl4ue6v"><path d="M120 64H136V80H120z" style="fill: inherit;"/></g><g id="__id119_sddl4ue6v"><path d="M456,32H56A32.036,32.036,0,0,0,24,64V384a32.036,32.036,0,0,0,32,32H197.058l-4.364,48H168v16H344V464H319.306l-4.364-48H456a32.036,32.036,0,0,0,32-32V64A32.036,32.036,0,0,0,456,32ZM56,48H456a16.019,16.019,0,0,1,16,16V96H40V64A16.019,16.019,0,0,1,56,48Zm416,64V336H40V112ZM303.24,464H208.76l4.364-48h85.752ZM456,400H56a16.019,16.019,0,0,1-16-16V352H472v32A16.019,16.019,0,0,1,456,400Z" style="fill: inherit;"/></g><g id="__id120_sddl4ue6v"><path d="M248 368H264V384H248z" style="fill: inherit;"/></g><g id="__id121_sddl4ue6v"><path d="M64 200H80V216H64z" style="fill: inherit;"/></g><g id="__id122_sddl4ue6v"><path d="M96 200H216V216H96z" style="fill: inherit;"/></g><g id="__id123_sddl4ue6v"><path d="M64 232H80V248H64z" style="fill: inherit;"/></g><g id="__id124_sddl4ue6v"><path d="M96 232H304V248H96z" style="fill: inherit;"/></g><g id="__id125_sddl4ue6v"><path d="M64 264H80V280H64z" style="fill: inherit;"/></g><g id="__id126_sddl4ue6v"><path d="M96 264H248V280H96z" style="fill: inherit;"/></g><g id="__id127_sddl4ue6v"><path d="M64 296H80V312H64z" style="fill: inherit;"/></g><g id="__id128_sddl4ue6v"><path d="M96 296H328V312H96z" style="fill: inherit;"/></g><g id="__id129_sddl4ue6v"><path d="M66.343,165.657l16,16,11.314-11.314L83.313,160l10.344-10.343L82.343,138.343l-16,16A8,8,0,0,0,66.343,165.657Z" style="fill: inherit;"/></g><g id="__id130_sddl4ue6v"><path d="M146.343,170.343l11.314,11.314,16-16a8,8,0,0,0,0-11.314l-16-16-11.314,11.314L156.687,160Z" style="fill: inherit;"/></g><g id="__id131_sddl4ue6v"><path d="M94.702 152H145.298V168H94.702z" transform="rotate(-71.562 120 160)" style="fill: inherit;"/></g><g id="__id132_sddl4ue6v"><path d="M320 232H368V248H320z" style="fill: inherit;"/></g><g id="__id133_sddl4ue6v"><path d="M344 296H360V312H344z" style="fill: inherit;"/></g><g id="__id134_sddl4ue6v"><path d="M376 296H392V312H376z" style="fill: inherit;"/></g><g id="__id135_sddl4ue6v"><path d="M232 200H248V216H232z" style="fill: inherit;"/></g></svg>